<svg xmlns="http://www.w3.org/2000/svg" width="940.838" height="940.838">
  <path d="M382.587 0A20.694 20.694 0 00369 5.089L169.716 178.671c-8.603 7.495-9.505 20.592-2.013 29.193l233.002 267.501 11.754 13.494 11.95 13.721c-9.571.99-19.716 2.354-29.751 4.23-36.883 6.906-60.356 18.801-64.404 32.631-1.296 4.422-3.096 21.168 8.113 81.021 6.888 36.775 17.64 84.287 31.958 141.211 19.545 77.701 40.511 152.033 48.263 179.164h156.069l13.769-255.023s-19.079-177.572-21.125-197.01c-1.089-10.344-3.327-21.193-3.327-31.594l-1.738-16.506v-.813c0-3.202-.444-6.3-1.258-9.247-4.062-14.703-17.547-25.534-33.523-25.534-19.178 0-34.78 15.604-34.78 34.781v19.785c0 62.324-.483 124.646-.483 186.968 0 5.014-2.505 9.695-6.675 12.479a15.014 15.014 0 01-14.084 1.373c-2.896-1.203-28.484-12.432-34.621-35.354-2.349-8.771-2.627-22.52 9.381-38.197.202-.264.413-.52.632-.77l15.367-17.52-.483-56.754-9.898-11.363-12.457-14.303-12.241-14.053-241.961-277.78L382.464 22.538l28.205 32.381 11.42-3.638 11.419-3.637-35.315-40.542A20.685 20.685 0 00382.587 0zM598.015 514.172l8.687 82.496h.751c13.307 0 24.003-4.711 31.795-13.998 6.657-7.938 10.633-18.947 10.633-29.453 0-23.355-21.938-39.045-42.428-39.045h-9.438z"/>
  <path d="M777.753 420.025L647.973 12.592a9.693 9.693 0 00-9.232-6.753 9.69 9.69 0 00-2.943.459l-186.545 59.42-11.419 3.638-11.421 3.638-42.431 13.515c-5.1 1.625-7.917 7.076-6.293 12.177l89.89 282.202 6.562 20.6a66.634 66.634 0 014.108-5.135c7.479-8.441 17.088-14.945 27.979-18.672a65.458 65.458 0 0121.229-3.537c16.688 0 31.271 6.257 42.162 16.54 5.933 5.6 10.771 12.391 14.249 20.024a68.092 68.092 0 013.938 11.157 71.55 71.55 0 012.092 12.767c.106 1.453.186 2.915.204 4.394l5.19 49.291 9.315-2.967 14.372-4.578 152.479-48.569c5.103-1.626 7.92-7.078 6.295-12.178z"/>
</svg>
