<svg xmlns="http://www.w3.org/2000/svg" viewBox="0 0 51.798 51.798">
  <g fill="#010002">
    <circle cx="30.563" cy="4.754" r="4.754"/>
    <circle cx="8.493" cy="36.964" r="4.002"/>
    <path d="M47.259 26.37c-1.654-9.193-8.684-14.797-17.738-15.824a2.518 2.518 0 00-1.092.098 2.567 2.567 0 00-1.007-.098c-4.129.367-7.68 3.463-10.246 6.538-2.151 2.576 1.538 6.308 3.708 3.708 1.098-1.315 2.765-3.258 4.546-4.296.015.049.023.099.04.149 1.153 3.42 1.483 6.792 1.15 10.368a38.669 38.669 0 00-3.786 1.742c-1.655.862-3.702 1.751-4.357 3.61L14.534 43.55c-1.127 3.198 3.941 4.562 5.058 1.396l3.668-10.404c1.814-1.16 3.834-2.289 5.926-2.986a4.723 4.723 0 002.08.557c.049 0 .094-.004.142-.006.301 5.703.534 11.41.778 17.113.145 3.361 5.391 3.48 5.244.094-.332-7.789-.646-15.584-1.138-23.366a3.217 3.217 0 00-.075-.499 31.628 31.628 0 00-.625-7.686c3.479 2.052 5.803 5.52 6.607 10.006.601 3.321 5.653 1.908 5.06-1.399z"/>
  </g>
</svg>
